<svg width="24" height="18" viewBox="0 0 24 18" fill="none" xmlns="http://www.w3.org/2000/svg">
<path fill-rule="evenodd" clip-rule="evenodd" d="M23.435 1.25C23.613 0.545 23.435 0.0324998 22.6475 0.0324998H20.029C19.3685 0.0324998 19.0635 0.48125 18.8855 0.96125C18.8855 0.96125 17.5385 5.06125 15.6575 7.71937C15.0475 8.48812 14.768 8.74438 14.4375 8.74438C14.2595 8.74438 14.0305 8.48812 14.0305 7.78375V1.21688C14.0305 0.384375 13.8275 0 13.268 0H9.15001C8.74301 0 8.48901 0.384375 8.48901 0.76875C8.48901 1.56938 9.42951 1.76187 9.53101 4.00375V8.875C9.53101 9.93188 9.38101 10.125 9.04801 10.125C8.15851 10.125 5.99801 5.99312 4.70201 1.285C4.45001 0.3525 4.19401 0 3.533 0H0.889501C0.127 0 0 0.448125 0 0.92875C0 1.79375 0.889501 6.14938 4.14301 11.9144C6.30351 15.8519 9.37901 17.9681 12.1495 17.9681C13.8275 17.9681 14.0305 17.4875 14.0305 16.6869V13.7081C14.0305 12.7475 14.183 12.5875 14.717 12.5875C15.098 12.5875 15.7845 12.8431 17.335 14.7331C19.114 16.975 19.419 18 20.4105 18H23.0285C23.791 18 24.147 17.5194 23.9435 16.5906C23.715 15.6619 22.8505 14.3169 21.732 12.7156C21.122 11.8194 20.207 10.8263 19.9275 10.3456C19.5465 9.705 19.648 9.44875 19.9275 8.8725C19.902 8.8725 23.105 3.17125 23.435 1.2475" fill="#18B75C"/>
</svg>
