<svg width="24" height="24" viewBox="0 0 24 24" fill="none" xmlns="http://www.w3.org/2000/svg">
<path d="M3.78947 9.88235H0V24H3.78947V9.88235Z" fill="#18B75C"/>
<path d="M21.4737 8.47059H15.1579V1.41176C15.1579 1.03734 15.0248 0.678253 14.7879 0.413496C14.551 0.148739 14.2297 0 13.8947 0H12.6316L7.15545 7.58935C6.61212 8.3424 6.31581 9.28062 6.31579 10.248V21.1765C6.31579 21.9253 6.58195 22.6435 7.05573 23.173C7.52951 23.7025 8.17208 24 8.8421 24H16.9703C17.6775 24 18.3706 23.7788 18.9711 23.3615C19.5717 22.9442 20.0558 22.3473 20.3686 21.6385L24 13.4118V11.2941C24 10.5453 23.7338 9.8271 23.2601 9.29758C22.7863 8.76807 22.1437 8.47059 21.4737 8.47059Z" fill="#18B75C"/>
</svg>
