<svg width="24" height="21" viewBox="0 0 24 21" fill="none" xmlns="http://www.w3.org/2000/svg">
<path d="M11.6107 10.3658C11.6107 10.3817 11.6107 10.3977 11.6107 10.4137C11.6107 10.4376 11.6107 10.4589 11.6107 10.4828C11.6107 10.4908 11.6107 10.4988 11.6107 10.5041C11.6107 10.5148 11.6107 10.5227 11.6107 10.5334C11.6107 10.5493 11.6107 10.568 11.6134 10.5839C11.6134 10.5919 11.6134 10.6025 11.6162 10.6105C11.6162 10.6212 11.6162 10.6318 11.619 10.6398C11.6802 11.6746 12.1446 12.6376 12.9316 13.3665C13.4517 13.8453 14.0718 14.1912 14.7476 14.38C15.1453 14.4918 15.5625 14.5503 15.988 14.5503H22.8431V18.7481C22.8431 19.8335 21.9198 20.714 20.788 20.714H2.04681C0.917729 20.714 0 19.8361 0 18.7561V2.1005C0 1.02045 0.917729 0.142578 2.04681 0.142578H20.788C21.9226 0.142578 22.8431 1.02577 22.8431 2.10848V6.30363H15.9351C15.4206 6.30363 14.9256 6.38344 14.4612 6.53773C13.866 6.73725 13.3265 7.05647 12.8788 7.48477C12.6285 7.72419 12.4116 7.98755 12.2336 8.26687C12.2253 8.28017 12.2169 8.29347 12.2086 8.30943C12.1808 8.352 12.1557 8.39456 12.1307 8.43712C12.1224 8.45042 12.114 8.46639 12.1057 8.47969C12.089 8.50895 12.0751 8.53821 12.0584 8.56747C12.0445 8.59408 12.0306 8.62334 12.0167 8.64994C11.9638 8.75369 11.9194 8.86276 11.8749 8.96917C11.8693 8.98513 11.8637 8.99843 11.8582 9.01439C11.8053 9.15538 11.7608 9.30169 11.7219 9.448C11.7191 9.46131 11.7163 9.47195 11.7136 9.48259C11.708 9.50121 11.7052 9.51983 11.6997 9.53845C11.6969 9.55175 11.6941 9.56505 11.6913 9.57836C11.6857 9.59964 11.683 9.62092 11.6774 9.6422C11.6746 9.65284 11.6746 9.66348 11.6718 9.67412C11.6691 9.69008 11.6663 9.70605 11.6635 9.72201C11.6607 9.73797 11.6579 9.75393 11.6552 9.76989C11.6524 9.78585 11.6496 9.80181 11.6468 9.81777C11.644 9.83374 11.6413 9.8497 11.6413 9.86566C11.6329 9.93482 11.6246 10.004 11.619 10.0732C11.6162 10.1157 11.6134 10.1609 11.6107 10.2035C11.6107 10.2062 11.6107 10.2115 11.6107 10.2141C11.6079 10.2461 11.6079 10.278 11.6079 10.3099C11.6107 10.3365 11.6107 10.3498 11.6107 10.3658Z" fill="#18B75C"/>
<path d="M23.5075 7.36773H15.9349C15.0589 7.36773 14.2524 7.67631 13.6656 8.24028C13.0399 8.83883 12.7034 9.62891 12.72 10.4642C12.7562 12.1295 14.219 13.4862 15.9877 13.4862H23.3907C23.7272 13.4862 23.9998 13.2255 23.9998 12.9036V7.83859C23.9998 7.57789 23.7801 7.36773 23.5075 7.36773ZM15.9154 11.6161C15.1979 11.6161 14.6389 11.0787 14.6389 10.3951C14.6389 9.70872 15.2007 9.17401 15.9154 9.17401C16.6329 9.17401 17.1919 9.71138 17.1919 10.3951C17.1919 11.0787 16.6301 11.6161 15.9154 11.6161Z" fill="#18B75C"/>
</svg>
