<svg width="20" height="24" viewBox="0 0 20 24" fill="none" xmlns="http://www.w3.org/2000/svg">
<path d="M9.99986 0C7.50012 0.0028359 5.10357 0.99715 3.33599 2.7648C1.5684 4.53246 0.574125 6.9291 0.571289 9.42894C0.571289 17.4971 9.14272 23.5938 9.507 23.8509C9.65299 23.9481 9.82447 24 9.99986 24C10.1753 24 10.3467 23.9481 10.4927 23.8509C10.857 23.5938 19.4284 17.4971 19.4284 9.42894C19.4256 6.9291 18.4313 4.53246 16.6637 2.7648C14.8961 0.99715 12.4996 0.0028359 9.99986 0ZM9.99986 6.00023C10.678 6.00023 11.3408 6.20132 11.9047 6.57807C12.4685 6.95482 12.9079 7.49032 13.1674 8.11683C13.4269 8.74334 13.4948 9.43274 13.3626 10.0978C13.2303 10.7629 12.9037 11.3739 12.4242 11.8534C11.9447 12.3329 11.3338 12.6595 10.6687 12.7918C10.0037 12.9241 9.31429 12.8562 8.6878 12.5966C8.06131 12.3371 7.52584 11.8977 7.14911 11.3338C6.77237 10.77 6.57129 10.1071 6.57129 9.42894C6.57129 8.51959 6.93251 7.64748 7.57549 7.00448C8.21848 6.36147 9.09055 6.00023 9.99986 6.00023Z" fill="#18B75C"/>
</svg>
