<svg width="24" height="24" viewBox="0 0 24 24" fill="none" xmlns="http://www.w3.org/2000/svg">
<path d="M13.8194 15H10.2144C9.22297 15 8.41183 16.0125 8.41183 17.25V21.75C8.41183 22.9875 9.22297 24 10.2144 24H13.8194C14.8108 24 15.622 22.9875 15.622 21.75V17.25C15.622 16.0125 14.8108 15 13.8194 15ZM22.1975 0H18.5924C17.601 0 16.7899 1.0125 16.7899 2.25V6.75C16.7899 7.9875 17.601 9 18.5924 9H22.1975C23.1889 9 24 7.9875 24 6.75V2.25C24 1.0125 23.2227 0 22.1975 0ZM7.21014 2.25C7.21014 1.0125 6.399 0 5.4076 0H1.80253C0.811141 0 0 1.0125 0 2.25V6.75C0 7.9875 0.811141 9 1.80253 9H4.80038L7.54323 15C7.9612 14.1094 8.72727 13.5 9.61352 13.5L7.21014 8.22656V6H15.622V3H7.21014V2.25Z" fill="#18B75C"/>
</svg>
