<svg width="24" height="24" viewBox="0 0 24 24" fill="none" xmlns="http://www.w3.org/2000/svg">
<path d="M23.35 9.35862L13.3501 0.510549C12.9814 0.182135 12.4998 0 12.0001 0C11.5004 0 11.0188 0.182135 10.6501 0.510549L0.65026 9.35862C0.445518 9.541 0.281995 9.76286 0.170092 10.0101C0.0581894 10.2574 0.000354887 10.5246 0.000266706 10.7948V22.0039C-0.00786381 22.4949 0.170148 22.9715 0.500261 23.3427C0.687619 23.5502 0.91842 23.7161 1.17715 23.8295C1.43587 23.9429 1.71653 24.001 2.00024 23.9999H8.00018C8.26539 23.9999 8.51974 23.8973 8.70728 23.7148C8.89481 23.5322 9.00017 23.2845 9.00017 23.0263V17.1844C9.00017 16.9261 9.10552 16.6785 9.29306 16.4959C9.48059 16.3133 9.73494 16.2107 10.0002 16.2107H14.0001C14.2653 16.2107 14.5197 16.3133 14.7072 16.4959C14.8947 16.6785 15.0001 16.9261 15.0001 17.1844V23.0263C15.0001 23.2845 15.1055 23.5322 15.293 23.7148C15.4805 23.8973 15.7349 23.9999 16.0001 23.9999H22C22.3317 24.0028 22.6587 23.9232 22.95 23.7687C23.267 23.6006 23.5317 23.3526 23.7165 23.0507C23.9012 22.7488 23.9991 22.4041 24 22.0526V10.7948C23.9999 10.5246 23.9421 10.2574 23.8302 10.0101C23.7183 9.76286 23.5548 9.541 23.35 9.35862Z" fill="#18B75C"/>
</svg>
