<svg width="24" height="20" viewBox="0 0 24 20" fill="none" xmlns="http://www.w3.org/2000/svg">
<path d="M23.8442 4.41642C23.8442 2.0728 22.2924 0.187489 20.375 0.187489C17.7777 0.0520804 15.1289 0 12.4239 0C12.2832 0 12.1426 0 12.002 0C11.8613 0 11.7207 0 11.58 0C8.87964 0 6.22615 0.0520804 3.62892 0.187489C1.71615 0.187489 0.164378 2.08322 0.164378 4.42684C0.0471741 6.2809 -0.00439548 8.13496 0.000292671 9.98903C-0.00439548 11.8431 0.0471741 13.6972 0.15969 15.5564C0.15969 17.9 1.71147 19.801 3.62423 19.801C6.35273 19.9416 9.15156 20.0041 11.9973 19.9989C14.8477 20.0093 17.6371 19.9468 20.3703 19.801C22.2877 19.801 23.8395 17.9 23.8395 15.5564C23.952 13.6972 24.0036 11.8431 23.9989 9.98382C24.0083 8.12976 23.9567 6.27569 23.8442 4.41642ZM9.70476 15.0981V4.86431L16.5026 9.97861L9.70476 15.0981Z" fill="#18B75C"/>
</svg>
